<svg width="372" height="298" viewBox="0 0 372 298" fill="none" xmlns="http://www.w3.org/2000/svg">
<path d="M181.35 18.625C173.619 18.625 167.4 24.8527 167.4 32.5938C167.4 40.3348 173.619 46.5625 181.35 46.5625H196.288L216.399 83.8125H129.561L113.634 61.6953C111.019 58.0285 106.776 55.875 102.3 55.875H69.75C62.0194 55.875 55.8 62.1027 55.8 69.8438C55.8 77.5848 62.0194 83.8125 69.75 83.8125H95.1506L107.996 101.681L92.535 132.587C86.7225 131.132 80.6194 130.375 74.4 130.375C33.3056 130.375 0 163.725 0 204.875C0 246.025 33.3056 279.375 74.4 279.375C112.356 279.375 143.627 250.914 148.219 214.188H176.7C181.641 214.188 186.174 211.568 188.732 207.32L238.022 123.798L250.635 147.137C233.895 160.815 223.2 181.594 223.2 204.875C223.2 246.025 256.506 279.375 297.6 279.375C338.694 279.375 372 246.025 372 204.875C372 163.725 338.694 130.375 297.6 130.375C289.753 130.375 282.197 131.597 275.106 133.867L218.201 28.4031C214.946 22.35 208.669 18.625 201.81 18.625H181.35ZM266.561 176.763L285.336 211.51C288.997 218.32 297.484 220.823 304.226 217.156C310.969 213.489 313.526 204.991 309.864 198.24L291.09 163.493C293.182 163.143 295.391 162.969 297.6 162.969C320.734 162.969 339.45 181.71 339.45 204.875C339.45 228.04 320.734 246.781 297.6 246.781C274.466 246.781 255.75 228.04 255.75 204.875C255.75 194.049 259.819 184.213 266.561 176.763ZM77.4225 214.188H115.204C110.961 232.871 94.2788 246.781 74.4 246.781C51.2663 246.781 32.55 228.04 32.55 204.875C32.55 181.71 51.2663 162.969 74.4 162.969C75.3881 162.969 76.3763 163.027 77.3644 163.085L63.2981 191.314C58.0669 201.848 65.6813 214.246 77.4225 214.246V214.188ZM97.0106 186.25L126.48 127.29L168.853 186.192L168.795 186.25H96.9525H97.0106ZM149.672 111.75H212.679L184.256 159.942L149.614 111.75H149.672Z" fill="white"/>
</svg>
