<svg width="53" height="61" viewBox="0 0 53 61" fill="none" xmlns="http://www.w3.org/2000/svg">
<path d="M35.9643 15.25C35.9643 12.7222 34.9672 10.2978 33.1923 8.51039C31.4174 6.72293 29.0101 5.71875 26.5 5.71875C23.9899 5.71875 21.5826 6.72293 19.8077 8.51039C18.0328 10.2978 17.0357 12.7222 17.0357 15.25C17.0357 17.7778 18.0328 20.2022 19.8077 21.9896C21.5826 23.7771 23.9899 24.7812 26.5 24.7812C29.0101 24.7812 31.4174 23.7771 33.1923 21.9896C34.9672 20.2022 35.9643 17.7778 35.9643 15.25ZM11.3571 15.25C11.3571 11.2054 12.9525 7.32655 15.7924 4.46662C18.6322 1.60669 22.4839 0 26.5 0C30.5161 0 34.3678 1.60669 37.2076 4.46662C40.0475 7.32655 41.6429 11.2054 41.6429 15.25C41.6429 19.2946 40.0475 23.1734 37.2076 26.0334C34.3678 28.8933 30.5161 30.5 26.5 30.5C22.4839 30.5 18.6322 28.8933 15.7924 26.0334C12.9525 23.1734 11.3571 19.2946 11.3571 15.25ZM5.83237 55.2812H47.1676C46.1147 47.7396 39.679 41.9375 31.9065 41.9375H21.0935C13.321 41.9375 6.88527 47.7396 5.83237 55.2812ZM0 57.4615C0 45.7262 9.44063 36.2188 21.0935 36.2188H31.9065C43.5594 36.2188 53 45.7262 53 57.4615C53 59.4154 51.4266 61 49.4864 61H3.51362C1.57344 61 0 59.4154 0 57.4615Z" fill="white"/>
</svg>
