<svg width="18" height="24" viewBox="0 0 18 24" fill="none" xmlns="http://www.w3.org/2000/svg">
<path d="M15.6227 10.1073H2.56422C1.76289 10.1073 1.11328 10.7569 1.11328 11.5582V21.7148C1.11328 22.5162 1.76289 23.1658 2.56422 23.1658H15.6227C16.424 23.1658 17.0736 22.5162 17.0736 21.7148V11.5582C17.0736 10.7569 16.424 10.1073 15.6227 10.1073Z" stroke="#A0A3BD" stroke-width="1.5" stroke-linecap="round" stroke-linejoin="round"/>
<path d="M4.01318 10.1071V6.47978C4.01318 5.13294 4.54822 3.84125 5.50058 2.88889C6.45295 1.93652 7.74463 1.40149 9.09148 1.40149C10.4383 1.40149 11.73 1.93652 12.6824 2.88889C13.6347 3.84125 14.1698 5.13294 14.1698 6.47978V10.1071" stroke="#A0A3BD" stroke-width="1.5" stroke-linecap="round" stroke-linejoin="round"/>
</svg>
