<svg width="70" height="70" viewBox="0 0 70 70" fill="none" xmlns="http://www.w3.org/2000/svg">
<path d="M30.1602 13.9375L37.0645 10H61.25V25H45.5547C42.5605 22.6406 38.9238 21.25 35 21.25C31.0762 21.25 27.4531 22.6406 24.4453 25H8.75V15H26.25C27.6035 15 28.9434 14.6406 30.1602 13.9375ZM0 15V60C0 65.5156 3.92383 70 8.75 70H61.25C66.0762 70 70 65.5156 70 60V10C70 4.48438 66.0762 0 61.25 0H37.0645C35.7109 0 34.3711 0.359375 33.1543 1.0625L26.25 5H21.875V2.5C21.875 1.125 20.8906 0 19.6875 0H10.9375C9.73438 0 8.75 1.125 8.75 2.5V5C3.92383 5 0 9.48438 0 15ZM22.9688 42.5C22.9688 38.8533 24.2363 35.3559 26.4926 32.7773C28.7489 30.1987 31.8091 28.75 35 28.75C38.1909 28.75 41.2511 30.1987 43.5074 32.7773C45.7637 35.3559 47.0312 38.8533 47.0312 42.5C47.0312 46.1467 45.7637 49.6441 43.5074 52.2227C41.2511 54.8013 38.1909 56.25 35 56.25C31.8091 56.25 28.7489 54.8013 26.4926 52.2227C24.2363 49.6441 22.9688 46.1467 22.9688 42.5Z" fill="white"/>
</svg>
