<svg width="68" height="68" viewBox="0 0 68 68" fill="none" xmlns="http://www.w3.org/2000/svg">
<circle opacity="0.15" cx="34.1842" cy="33.8844" r="33.3209" fill="#4A3AFF"/>
<path d="M19 26.2496C19 24.457 20.4948 22.9996 22.3333 22.9996H35.6667C37.5052 22.9996 39 24.457 39 26.2496V39.2496C39 41.0422 37.5052 42.4996 35.6667 42.4996H22.3333C20.4948 42.4996 19 41.0422 19 39.2496V26.2496ZM48.1198 24.8175C48.6615 25.1019 49 25.6504 49 26.2496V39.2496C49 39.8488 48.6615 40.3972 48.1198 40.6816C47.5781 40.966 46.9219 40.9355 46.4062 40.6004L41.4062 37.3504L40.6667 36.8679V35.9996V29.4996V28.6312L41.4062 28.1488L46.4062 24.8988C46.9167 24.5687 47.5729 24.5332 48.1198 24.8175Z" fill="white"/>
</svg>
