<svg width="262" height="198" viewBox="0 0 262 198" fill="none" xmlns="http://www.w3.org/2000/svg">
<path d="M32.75 25.3125C28.2469 25.3125 24.5625 28.9969 24.5625 33.5V44.809L112.834 117.268C123.427 125.968 138.625 125.968 149.217 117.268L237.438 44.809V33.5C237.438 28.9969 233.753 25.3125 229.25 25.3125H32.75ZM24.5625 76.5867V164.5C24.5625 169.003 28.2469 172.688 32.75 172.688H229.25C233.753 172.688 237.438 169.003 237.438 164.5V76.5867L164.773 136.253C145.123 152.372 116.825 152.372 97.2266 136.253L24.5625 76.5867ZM0 33.5C0 15.4363 14.6863 0.75 32.75 0.75H229.25C247.314 0.75 262 15.4363 262 33.5V164.5C262 182.564 247.314 197.25 229.25 197.25H32.75C14.6863 197.25 0 182.564 0 164.5V33.5Z" fill="white"/>
</svg>
