<svg width="68" height="68" viewBox="0 0 68 68" fill="none" xmlns="http://www.w3.org/2000/svg">
<circle opacity="0.15" cx="33.8658" cy="33.7928" r="33.3209" fill="#4A3AFF"/>
<path d="M46.3516 22.4273C46.9188 22.4273 47.3828 22.8773 47.3828 23.4273V43.4148L47.0605 43.0086L38.2949 32.0086C38.0049 31.6398 37.5473 31.4273 37.0703 31.4273C36.5934 31.4273 36.1422 31.6398 35.8457 32.0086L30.4961 38.7211L28.5303 36.0523C28.2402 35.6586 27.7762 35.4273 27.2734 35.4273C26.7707 35.4273 26.3066 35.6586 26.0166 36.0586L20.8604 43.0586L20.5703 43.4461V43.4273V23.4273C20.5703 22.8773 21.0344 22.4273 21.6016 22.4273H46.3516ZM21.6016 19.4273C19.3264 19.4273 17.4766 21.2211 17.4766 23.4273V43.4273C17.4766 45.6336 19.3264 47.4273 21.6016 47.4273H46.3516C48.6268 47.4273 50.4766 45.6336 50.4766 43.4273V23.4273C50.4766 21.2211 48.6268 19.4273 46.3516 19.4273H21.6016ZM26.7578 31.4273C27.1641 31.4273 27.5664 31.3497 27.9417 31.1989C28.3171 31.0482 28.6581 30.8272 28.9454 30.5486C29.2327 30.2701 29.4606 29.9393 29.6161 29.5754C29.7715 29.2114 29.8516 28.8213 29.8516 28.4273C29.8516 28.0333 29.7715 27.6432 29.6161 27.2793C29.4606 26.9153 29.2327 26.5846 28.9454 26.306C28.6581 26.0274 28.3171 25.8064 27.9417 25.6557C27.5664 25.5049 27.1641 25.4273 26.7578 25.4273C26.3515 25.4273 25.9492 25.5049 25.5739 25.6557C25.1985 25.8064 24.8575 26.0274 24.5702 26.306C24.2829 26.5846 24.055 26.9153 23.8996 27.2793C23.7441 27.6432 23.6641 28.0333 23.6641 28.4273C23.6641 28.8213 23.7441 29.2114 23.8996 29.5754C24.055 29.9393 24.2829 30.2701 24.5702 30.5486C24.8575 30.8272 25.1985 31.0482 25.5739 31.1989C25.9492 31.3497 26.3515 31.4273 26.7578 31.4273Z" fill="white"/>
</svg>
