<svg width="29" height="29" viewBox="0 0 29 29" fill="none" xmlns="http://www.w3.org/2000/svg">
<path d="M23.5637 11.7795C23.5637 14.3789 22.7197 16.7802 21.2979 18.7283L28.469 25.9036C29.177 26.6115 29.177 27.7612 28.469 28.4691C27.7609 29.177 26.6111 29.177 25.903 28.4691L18.732 21.2938C16.7834 22.7209 14.3818 23.559 11.7818 23.559C5.2735 23.559 0 18.2866 0 11.7795C0 5.27247 5.2735 0 11.7818 0C18.2901 0 23.5637 5.27247 23.5637 11.7795ZM11.7818 19.9346C12.853 19.9346 13.9136 19.7236 14.9032 19.3138C15.8928 18.904 16.792 18.3033 17.5494 17.546C18.3069 16.7888 18.9077 15.8897 19.3176 14.9003C19.7275 13.9109 19.9385 12.8505 19.9385 11.7795C19.9385 10.7086 19.7275 9.64814 19.3176 8.65872C18.9077 7.6693 18.3069 6.7703 17.5494 6.01303C16.792 5.25576 15.8928 4.65507 14.9032 4.24524C13.9136 3.83541 12.853 3.62447 11.7818 3.62447C10.7107 3.62447 9.65002 3.83541 8.66041 4.24524C7.6708 4.65507 6.77162 5.25576 6.0142 6.01303C5.25679 6.7703 4.65597 7.6693 4.24606 8.65872C3.83615 9.64814 3.62518 10.7086 3.62518 11.7795C3.62518 12.8505 3.83615 13.9109 4.24606 14.9003C4.65597 15.8897 5.25679 16.7888 6.0142 17.546C6.77162 18.3033 7.6708 18.904 8.66041 19.3138C9.65002 19.7236 10.7107 19.9346 11.7818 19.9346Z" fill="#858585"/>
</svg>
