<svg width="70" height="70" viewBox="0 0 70 70" fill="none" xmlns="http://www.w3.org/2000/svg">
<path d="M19.4444 0C15.1545 0 11.6667 4.48438 11.6667 10V45C11.6667 50.5156 15.1545 55 19.4444 55H62.2222C66.5122 55 70 50.5156 70 45V10C70 4.48438 66.5122 0 62.2222 0H19.4444ZM48.125 16.6719L59.7917 39.1719C60.3872 40.3281 60.4479 41.7969 59.9375 43.0156C59.4271 44.2344 58.4427 45 57.3611 45H39.8611H34.0278H24.3056C23.1875 45 22.1667 44.1719 21.6806 42.875C21.1944 41.5781 21.3281 40.0312 22.033 38.9062L29.8108 26.4062C30.3698 25.5156 31.1962 25 32.0833 25C32.9705 25 33.809 25.5156 34.3559 26.4062L36.4583 29.7813L43.2639 16.6563C43.8108 15.625 44.7222 15 45.6944 15C46.6667 15 47.5781 15.625 48.125 16.6719ZM23.3333 15C23.3333 13.6739 23.7431 12.4021 24.4724 11.4645C25.2017 10.5268 26.1908 10 27.2222 10C28.2536 10 29.2428 10.5268 29.9721 11.4645C30.7014 12.4021 31.1111 13.6739 31.1111 15C31.1111 16.3261 30.7014 17.5979 29.9721 18.5355C29.2428 19.4732 28.2536 20 27.2222 20C26.1908 20 25.2017 19.4732 24.4724 18.5355C23.7431 17.5979 23.3333 16.3261 23.3333 15ZM5.83333 13.75C5.83333 11.6719 4.53299 10 2.91667 10C1.30035 10 0 11.6719 0 13.75V48.75C0 60.4844 7.40104 70 16.5278 70H55.4167C57.033 70 58.3333 68.3281 58.3333 66.25C58.3333 64.1719 57.033 62.5 55.4167 62.5H16.5278C10.6215 62.5 5.83333 56.3438 5.83333 48.75V13.75Z" fill="white"/>
</svg>
